<?xml version="1.0" encoding="UTF-8"?>
<svg width="8px" height="8px" viewBox="0 0 8 8" version="1.1" xmlns="http://www.w3.org/2000/svg" xmlns:xlink="http://www.w3.org/1999/xlink">
    <!-- Generator: Sketch 49.3 (51167) - http://www.bohemiancoding.com/sketch -->
    <title>Shape</title>
    <desc>Created with Sketch.</desc>
    <defs></defs>
    <g id="Page-2" stroke="none" stroke-width="1" fill="none" fill-rule="evenodd">
        <g id="Desktop" transform="translate(-244.000000, -628.000000)" fill="#FF6564" fill-rule="nonzero">
            <g id="Chunk-Time" transform="translate(244.000000, 628.000000)">
                <path d="M7.62424922,7.62424922 C7.12324818,8.12525026 6.31344598,8.12525026 5.81244494,7.62424922 L4.00064067,5.81244494 L2.18883639,7.62424922 C1.68783535,8.12525026 0.876751822,8.12525026 0.375750781,7.62424922 C-0.12525026,7.12324818 -0.12525026,6.31344598 0.375750781,5.81244494 L2.18883639,4.00064067 L0.375750781,2.18883639 C-0.12525026,1.68783535 -0.12525026,0.876751822 0.375750781,0.375750781 C0.876751822,-0.12525026 1.68783535,-0.12525026 2.18883639,0.375750781 L4.00064067,2.18883639 L5.81244494,0.375750781 C6.31344598,-0.12525026 7.12324818,-0.12525026 7.62424922,0.375750781 C8.12525026,0.876751822 8.12525026,1.68783535 7.62424922,2.18883639 L5.81244494,4.00064067 L7.62424922,5.81244494 C8.12525026,6.31344598 8.12525026,7.12452951 7.62424922,7.62424922 Z" id="Shape"></path>
            </g>
        </g>
    </g>
</svg>