<?xml version="1.0" encoding="UTF-8"?>
<svg width="15px" height="12px" viewBox="0 0 15 12" version="1.1" xmlns="http://www.w3.org/2000/svg" xmlns:xlink="http://www.w3.org/1999/xlink">
    <!-- Generator: Sketch 49.3 (51167) - http://www.bohemiancoding.com/sketch -->
    <title>Shape</title>
    <desc>Created with Sketch.</desc>
    <defs></defs>
    <g id="Page-2" stroke="none" stroke-width="1" fill="none" fill-rule="evenodd">
        <g id="Desktop" transform="translate(-473.000000, -578.000000)" fill="#333333" fill-rule="nonzero">
            <g id="Toolbar" transform="translate(256.000000, 576.000000)">
                <path d="M230.769843,13.8580419 C230.379745,14.0668355 229.905627,14.0440362 229.538335,13.7980437 L222.336534,8.99818863 C222.001651,8.77499538 221.8012,8.40060668 221.8012,7.99981879 C221.8012,7.59783093 222.001651,7.2246422 222.335334,7.00144894 L229.537135,2.20159391 C229.905627,1.9568013 230.378545,1.93280203 230.768643,2.14159572 C231.15874,2.35038942 231.403601,2.75717713 231.403601,3.19996376 L231.403601,12.7996738 C231.403601,13.2424604 231.15994,13.6480482 230.769843,13.8580419 Z M220.6009,13.9996376 L218.2003,13.9996376 C217.536534,13.9996376 217,13.4632538 217,12.7996738 L217,3.19996376 C217,2.5363838 217.536534,2 218.2003,2 L220.6009,2 C221.264666,2 221.8012,2.5363838 221.8012,3.19996376 L221.8012,7.99981879 L221.8012,12.7996738 C221.8012,13.4632538 221.264666,13.9996376 220.6009,13.9996376 Z" id="Shape"></path>
            </g>
        </g>
    </g>
</svg>