<?xml version="1.0" encoding="UTF-8"?>
<svg width="20px" height="15px" viewBox="0 0 20 15" version="1.1" xmlns="http://www.w3.org/2000/svg" xmlns:xlink="http://www.w3.org/1999/xlink">
    <!-- Generator: Sketch 49.3 (51167) - http://www.bohemiancoding.com/sketch -->
    <title>Shape</title>
    <desc>Created with Sketch.</desc>
    <defs></defs>
    <g id="Page-2" stroke="none" stroke-width="1" fill="none" fill-rule="evenodd">
        <g id="Desktop" transform="translate(-256.000000, -576.000000)" fill="#AAAAAA" fill-rule="nonzero">
            <g id="Toolbar" transform="translate(256.000000, 576.000000)">
                <path d="M16.2499467,2.49925355 C18.3211899,2.49925355 19.9999344,4.17924804 19.9999344,6.24924125 L19.9999344,11.2492248 C19.9999344,13.320468 18.3211899,14.9992125 16.2499467,14.9992125 L3.7499877,14.9992125 C1.67874449,14.9992125 0,13.320468 0,11.2492248 L0,6.24924125 C0,4.17924804 1.67874449,2.49925355 3.7499877,2.49925355 L8.74997129,2.49925355 L8.74997129,1.25050765 C8.74997129,0.745509308 9.05497029,0.288010809 9.52121876,0.0955114403 C9.98871722,-0.0982379239 10.5262155,0.00801172744 10.8837143,0.36676055 L13.3837061,2.86550235 C13.6274553,3.10925155 13.7499549,3.4292505 13.7499549,3.74924945 C13.7499549,4.0692484 13.6274553,4.38924735 13.3837061,4.63299655 L10.8837143,7.13298835 C10.5274655,7.49048718 9.98871722,7.59673683 9.52121876,7.40423746 C9.05497029,7.21173809 8.74997129,6.75423959 8.74997129,6.24924125 L8.74997129,4.99924535 L3.7499877,4.99924535 C3.05998996,4.99924535 2.4999918,5.55799352 2.4999918,6.24924125 L2.4999918,11.2492248 C2.4999918,11.9404726 3.05998996,12.4992207 3.7499877,12.4992207 L16.2499467,12.4992207 C16.9411944,12.4992207 17.4999426,11.9404726 17.4999426,11.2492248 L17.4999426,6.24924125 C17.4999426,5.55799352 16.9411944,4.99924535 16.2499467,4.99924535 L16.0224474,4.99924535 C16.163697,4.60174665 16.2499467,4.18424802 16.2499467,3.74924945 C16.2499467,3.31425088 16.163697,2.89675225 16.0224474,2.49925355 L16.2499467,2.49925355 Z" id="Shape"></path>
            </g>
        </g>
    </g>
</svg>