<?xml version="1.0" encoding="UTF-8"?>
<svg width="16px" height="16px" viewBox="0 0 16 16" version="1.1" xmlns="http://www.w3.org/2000/svg" xmlns:xlink="http://www.w3.org/1999/xlink">
    <!-- Generator: Sketch 49.3 (51167) - http://www.bohemiancoding.com/sketch -->
    <title>Shape</title>
    <desc>Created with Sketch.</desc>
    <defs></defs>
    <g id="Page-2" stroke="none" stroke-width="1" fill="none" fill-rule="evenodd">
        <g id="Desktop" transform="translate(-720.000000, -576.000000)" fill="#AAAAAA" fill-rule="nonzero">
            <g id="Toolbar" transform="translate(256.000000, 576.000000)">
                <path d="M472,0 C467.582,0 464,3.582 464,8 C464,12.418 467.582,16 472,16 C476.418,16 480,12.418 480,8 C480,3.582 476.418,0 472,0 Z M472,14 C468.687,14 466,11.313 466,8 C466,4.687 468.687,2 472,2 C475.313,2 478,4.687 478,8 C478,11.313 475.313,14 472,14 Z M475,7 L473,7 L473,5 C473,4.447 472.552,4 472,4 C471.448,4 471,4.447 471,5 L471,8 C471,8.553 471.448,9 472,9 L475,9 C475.553,9 476,8.553 476,8 C476,7.447 475.553,7 475,7 Z" id="Shape"></path>
            </g>
        </g>
    </g>
</svg>