<?xml version="1.0" encoding="UTF-8"?>
<svg width="16px" height="16px" viewBox="0 0 16 16" version="1.1" xmlns="http://www.w3.org/2000/svg" xmlns:xlink="http://www.w3.org/1999/xlink">
    <!-- Generator: Sketch 49.3 (51167) - http://www.bohemiancoding.com/sketch -->
    <title>Shape Copy</title>
    <desc>Created with Sketch.</desc>
    <defs></defs>
    <g id="Page-2" stroke="none" stroke-width="1" fill="none" fill-rule="evenodd">
        <g id="Desktop" transform="translate(-256.000000, -96.000000)" fill="#333333" fill-rule="nonzero">
            <g id="Main-Menu" transform="translate(256.000000, 96.000000)">
                <path d="M2,9 L2,11 L0,11 L0,9 L2,9 Z M2,5 L2,7 L0,7 L0,5 L2,5 Z M3,2 C2.447,2 2,2.448 2,3 L0,3 C0,1.343 1.343,0 3,0 L3,2 Z M7,14 L7,16 L5,16 L5,14 L7,14 Z M7,0 L7,2 L5,2 L5,0 L7,0 Z M5.076,7.383 C4.922,7.008 5.008,6.578 5.293,6.292 L7.293,4.292 C7.488,4.097 7.744,3.999 8,3.999 C8.256,3.999 8.512,4.097 8.707,4.292 L10.707,6.292 C10.993,6.578 11.078,7.009 10.924,7.383 C10.77,7.756 10.404,8 10,8 L9,8 L9,11 C9,11.553 8.552,12 8,12 C7.447,12 7,11.553 7,11 L7,8 L6,8 C5.596,8 5.23,7.756 5.076,7.383 Z M11,0 L11,2 L9,2 L9,0 L11,0 Z M16,13 C16,14.657 14.657,16 13,16 L13,14 C13.552,14 14,13.553 14,13 L16,13 Z M14,3 C14,2.448 13.552,2 13,2 L13,0 C14.657,0 16,1.343 16,3 L14,3 Z M14,7 L14,5 L16,5 L16,7 L14,7 Z M14,11 L14,9 L16,9 L16,11 L14,11 Z M9,16 L9,14 L11,14 L11,16 L9,16 Z M2,13 C2,13.553 2.447,14 3,14 L3,16 C1.343,16 0,14.657 0,13 L2,13 Z" id="Shape-Copy"></path>
            </g>
        </g>
    </g>
</svg>