<?xml version="1.0" encoding="UTF-8"?>
<svg width="16px" height="16px" viewBox="0 0 16 16" version="1.1" xmlns="http://www.w3.org/2000/svg" xmlns:xlink="http://www.w3.org/1999/xlink">
    <!-- Generator: Sketch 49.3 (51167) - http://www.bohemiancoding.com/sketch -->
    <title>Shape</title>
    <desc>Created with Sketch.</desc>
    <defs></defs>
    <g id="Page-2" stroke="none" stroke-width="1" fill="none" fill-rule="evenodd">
        <g id="Desktop" transform="translate(-373.000000, -96.000000)" fill="#333333" fill-rule="nonzero">
            <g id="Main-Menu" transform="translate(256.000000, 96.000000)">
                <path d="M129.998375,15.9980002 L128.242595,15.9980002 L129.122485,15.1171104 C129.444444,14.7931509 129.682415,14.4101987 129.827397,13.9982502 L129.998375,13.9982502 C130.551306,13.9982502 130.99825,13.5513061 130.99825,12.9983752 L130.99825,5.99925009 L118.99975,5.99925009 L118.99975,12.9983752 C118.99975,13.5513061 119.447694,13.9982502 119.999625,13.9982502 L120.169604,13.9982502 C120.315586,14.4121985 120.553556,14.7971504 120.877515,15.1211099 L121.756405,15.9980002 L119.999625,15.9980002 C118.342832,15.9980002 117,14.6541682 117,12.9983752 L117,2.99962505 C117,1.34283215 118.342832,0 119.999625,0 L129.998375,0 C131.655168,0 132.998,1.34283215 132.998,2.99962505 L132.998,12.9983752 C132.998,14.6541682 131.655168,15.9980002 129.998375,15.9980002 Z M130.99825,2.99962505 C130.99825,2.44769404 130.551306,1.99975003 129.998375,1.99975003 L119.999625,1.99975003 C119.447694,1.99975003 118.99975,2.44769404 118.99975,2.99962505 L118.99975,4.99937508 L130.99825,4.99937508 L130.99825,2.99962505 Z M120.9995,3.99950006 L119.999625,3.99950006 L119.999625,2.99962505 L120.9995,2.99962505 L120.9995,3.99950006 Z M122.99925,3.99950006 L121.999375,3.99950006 L121.999375,2.99962505 L122.99925,2.99962505 L122.99925,3.99950006 Z M129.998375,3.99950006 L123.999125,3.99950006 L123.999125,2.99962505 L129.998375,2.99962505 L129.998375,3.99950006 Z M122.99925,11.9985002 L123.999125,11.9985002 L123.999125,8.99887514 C123.999125,8.44694413 124.447069,7.99900012 124.999,7.99900012 C125.551931,7.99900012 125.998875,8.44594426 125.998875,8.99887514 L125.998875,11.9985002 L126.99875,11.9985002 C127.4027,11.9985002 127.768654,12.2424697 127.922635,12.6154231 C128.076615,12.9903762 127.990626,13.4203225 127.705662,13.7052868 L125.705912,15.7050369 C125.510936,15.9000125 125.254968,16 124.999,16 C124.743032,16 124.487064,15.9000125 124.292088,15.7050369 L122.292338,13.7052868 C122.006374,13.4203225 121.921385,12.9883765 122.075366,12.6154231 C122.229346,12.2424697 122.595301,11.9985002 122.99925,11.9985002 Z" id="Shape"></path>
            </g>
        </g>
    </g>
</svg>