<?xml version="1.0" encoding="UTF-8"?>
<svg width="15px" height="12px" viewBox="0 0 15 12" version="1.1" xmlns="http://www.w3.org/2000/svg" xmlns:xlink="http://www.w3.org/1999/xlink">
    <!-- Generator: Sketch 49.3 (51167) - http://www.bohemiancoding.com/sketch -->
    <title>Shape</title>
    <desc>Created with Sketch.</desc>
    <defs></defs>
    <g id="Page-2" stroke="none" stroke-width="1" fill="none" fill-rule="evenodd">
        <g id="Desktop" transform="translate(-536.000000, -578.000000)" fill="#333333" fill-rule="nonzero">
            <g id="Toolbar" transform="translate(256.000000, 576.000000)">
                <path d="M280.633758,13.8580419 C280.243661,13.6480482 280,13.2424604 280,12.7996738 L280,3.19996376 C280,2.75717713 280.244861,2.35038942 280.634959,2.14159572 C281.025056,1.93280203 281.497975,1.9568013 281.866467,2.20159391 L289.068267,7.00144894 C289.401951,7.2246422 289.602401,7.59783093 289.602401,7.99981879 C289.602401,8.40060668 289.401951,8.77499538 289.067067,8.99818863 L281.865266,13.7980437 C281.497975,14.0440362 281.023856,14.0668355 280.633758,13.8580419 Z M290.802701,13.9996376 C290.138935,13.9996376 289.602401,13.4632538 289.602401,12.7996738 L289.602401,7.99981879 L289.602401,3.19996376 C289.602401,2.5363838 290.138935,2 290.802701,2 L293.203301,2 C293.867067,2 294.403601,2.5363838 294.403601,3.19996376 L294.403601,12.7996738 C294.403601,13.4632538 293.867067,13.9996376 293.203301,13.9996376 L290.802701,13.9996376 Z" id="Shape"></path>
            </g>
        </g>
    </g>
</svg>