<?xml version="1.0" encoding="UTF-8"?>
<svg width="14px" height="16px" viewBox="0 0 14 16" version="1.1" xmlns="http://www.w3.org/2000/svg" xmlns:xlink="http://www.w3.org/1999/xlink">
    <!-- Generator: Sketch 49.3 (51167) - http://www.bohemiancoding.com/sketch -->
    <title>Shape</title>
    <desc>Created with Sketch.</desc>
    <defs></defs>
    <g id="Page-2" stroke="none" stroke-width="1" fill="none" fill-rule="evenodd">
        <g id="Desktop" transform="translate(-507.000000, -576.000000)" fill="#333333" fill-rule="nonzero">
            <g id="Toolbar" transform="translate(256.000000, 576.000000)">
                <path d="M265,8 C265,7.4505 264.704,6.97 264.2625,6.7085 L253.2805,0.219 C253.2765,0.2165 253.2725,0.2145 253.2685,0.212 L253.263,0.2085 C253.0395,0.0765 252.7785,0 252.5,0 C251.6715,0 251,0.6715 251,1.5 L251,14.5 C251,15.3285 251.6715,16 252.5,16 C252.7785,16 253.0395,15.924 253.263,15.7915 L253.2685,15.788 C253.2725,15.785 253.2765,15.783 253.2805,15.781 L264.2625,9.2915 C264.704,9.0305 265,8.55 265,8 Z" id="Shape"></path>
            </g>
        </g>
    </g>
</svg>