<?xml version="1.0" encoding="UTF-8"?>
<svg width="16px" height="16px" viewBox="0 0 16 16" version="1.1" xmlns="http://www.w3.org/2000/svg" xmlns:xlink="http://www.w3.org/1999/xlink">
    <!-- Generator: Sketch 49.3 (51167) - http://www.bohemiancoding.com/sketch -->
    <title>Shape</title>
    <desc>Created with Sketch.</desc>
    <defs></defs>
    <g id="Page-2" stroke="none" stroke-width="1" fill="none" fill-rule="evenodd">
        <g id="Desktop" transform="translate(-294.000000, -576.000000)" fill="#AAAAAA" fill-rule="nonzero">
            <g id="Toolbar" transform="translate(256.000000, 576.000000)">
                <path d="M46,16 C41.582,16 38,12.418 38,8 C38,3.582 41.582,0 46,0 C50.418,0 54,3.582 54,8 C54,12.418 50.418,16 46,16 Z M46,2 C42.687,2 40,4.687 40,8 C40,11.314 42.687,14 46,14 C49.313,14 52,11.314 52,8 C52,4.687 49.313,2 46,2 Z M49.8659819,10.4995473 C49.5909876,10.9783264 48.9780005,11.1422508 48.5000105,10.8653785 C48.0220205,10.5895058 47.8580239,9.97778805 48.1340181,9.50000848 C48.4100123,9.02122938 49.0229995,8.85830455 49.4999895,9.13417727 C49.9779795,9.41004999 50.1419761,10.0207682 49.8659819,10.4995473 Z M46,10 C44.896,10 44,9.104 44,8 C44,6.896 44.896,6 46,6 C47.104,6 48,6.896 48,8 C48,9.104 47.104,10 46,10 Z M46,7 C45.448,7 45,7.448 45,8 C45,8.552 45.448,9 46,9 C46.552,9 47,8.552 47,8 C47,7.448 46.552,7 46,7 Z M46,5 C45.448,5 45,4.552 45,4 C45,3.448 45.448,3 46,3 C46.552,3 47,3.448 47,4 C47,4.552 46.552,5 46,5 Z M43.4999895,10.8659965 C43.0209996,11.1419606 42.4100123,10.9779819 42.1340181,10.5000441 C41.8580239,10.0221062 42.0220205,9.41018583 42.5000105,9.13422172 C42.9780005,8.85825761 43.5899877,9.02123641 43.8659819,9.50017413 C44.1419761,9.97911184 43.9779795,10.5900324 43.4999895,10.8659965 Z" id="Shape"></path>
            </g>
        </g>
    </g>
</svg>