<?xml version="1.0" encoding="UTF-8"?>
<svg width="16px" height="16px" viewBox="0 0 16 16" version="1.1" xmlns="http://www.w3.org/2000/svg" xmlns:xlink="http://www.w3.org/1999/xlink">
    <!-- Generator: Sketch 49.3 (51167) - http://www.bohemiancoding.com/sketch -->
    <title>Shape</title>
    <desc>Created with Sketch.</desc>
    <defs></defs>
    <g id="Page-2" stroke="none" stroke-width="1" fill="none" fill-rule="evenodd">
        <g id="Desktop" transform="translate(-664.000000, -577.000000)" fill="#333333" fill-rule="nonzero">
            <g id="Toolbar" transform="translate(256.000000, 576.000000)">
                <path d="M421,14 L418,14 L416,17 L414,14 L411,14 C409.343,14 408,12.656 408,11 L408,4 C408,2.343 409.343,1 411,1 L421,1 C422.656,1 424,2.343 424,4 L424,11 C424,12.656 422.656,14 421,14 Z M422,4 C422,3.448 421.553,3 421,3 L411,3 C410.448,3 410,3.448 410,4 L410,11 C410,11.553 410.448,12 411,12 L414.666,12 L416,14 L417.334,12 L421,12 C421.553,12 422,11.553 422,11 L422,4 Z M412,7 L420,7 L420,8 L412,8 L412,7 Z M412,5 L420,5 L420,6 L412,6 L412,5 Z M416,10 L412,10 L412,9 L416,9 L416,10 Z" id="Shape"></path>
            </g>
        </g>
    </g>
</svg>